<svg width="24" height="24" viewBox="0 0 24 24" fill="none" xmlns="http://www.w3.org/2000/svg">
<path fill-rule="evenodd" clip-rule="evenodd" d="M1.29204 15.2273L7.32023 9.06774C8.44522 7.91823 10.2836 7.90375 11.4264 9.03539C11.4279 9.03694 11.4294 9.03849 11.431 9.04004L15.9145 13.5002C15.9562 13.5417 16.0236 13.5413 16.0649 13.4993C16.1044 13.4592 16.1061 13.3951 16.0688 13.3529L14.2363 11.2789C14.0257 11.0405 14.0108 10.6858 14.2007 10.4304L15.0328 9.31092C15.5514 8.61338 16.5338 8.47075 17.2273 8.99234C17.3146 9.05807 17.395 9.1328 17.4669 9.21531L22.7477 15.2704C23.1178 15.6948 23.0759 16.3407 22.6539 16.713C22.4685 16.8766 22.2304 16.9668 21.9837 16.9668H2.01624C1.45499 16.9668 1 16.5091 1 15.9445C1 15.6762 1.10489 15.4186 1.29204 15.2273Z" fill="url(#paint0_linear_1232_708)"/>
<defs>
<linearGradient id="paint0_linear_1232_708" x1="7.0579" y1="16.5978" x2="16.169" y2="10.0268" gradientUnits="userSpaceOnUse">
<stop offset="0.288159" stop-color="#FF9964"/>
<stop offset="1" stop-color="#FF6E63"/>
</linearGradient>
</defs>
</svg>
