<svg width="160" height="24" viewBox="0 0 160 24" fill="none" xmlns="http://www.w3.org/2000/svg">
<g clip-path="url(#clip0_1224_613)">
<g clip-path="url(#clip1_1224_613)">
<g clip-path="url(#clip2_1224_613)">
<path fill-rule="evenodd" clip-rule="evenodd" d="M0.47978 17.2829L10.3831 7.16375C12.2313 5.27529 15.2514 5.2515 17.1288 7.1106C17.1313 7.11314 17.1339 7.11569 17.1365 7.11824L24.5021 14.4455C24.5707 14.5138 24.6814 14.5131 24.7492 14.4441C24.8141 14.3782 24.8168 14.2729 24.7557 14.2036L21.7451 10.7963C21.3991 10.4046 21.3746 9.82202 21.6866 9.40231L23.0537 7.56324C23.9055 6.4173 25.5195 6.18298 26.6588 7.03988C26.8023 7.14786 26.9343 7.27063 27.0525 7.40618L35.7279 17.3537C36.336 18.0509 36.267 19.112 35.5739 19.7236C35.2693 19.9924 34.878 20.1406 34.4729 20.1406H1.66951C0.747467 20.1406 0 19.3887 0 18.4612C0 18.0203 0.172324 17.5971 0.47978 17.2829Z" fill="url(#paint0_linear_1224_613)"/>
<path fill-rule="evenodd" clip-rule="evenodd" d="M44.9299 19.7634L47.4592 4.68197H51.2926L54.2764 12.7227L57.2403 4.68197H61.0737L63.6029 19.7634H59.7498L58.4654 11.0826L54.9482 19.7634H53.4069L50.0674 11.0826L48.7831 19.7634H44.9299ZM74.0598 14.1078L72.3792 9.20639L70.6987 14.1078H74.0598ZM75.3527 17.1431H69.7793L68.8835 19.7634H64.7234L70.4361 4.68197H74.6959L80.4087 19.7634H76.2485L75.3527 17.1431ZM90.5401 8.56221C90.1114 8.21738 89.6819 7.96208 89.2532 7.7963C88.8237 7.63052 88.4085 7.54762 88.006 7.54762C87.4963 7.54762 87.0811 7.66699 86.7587 7.90571C86.4372 8.14444 86.276 8.4561 86.276 8.84072C86.276 9.10597 86.3562 9.32481 86.5174 9.49722C86.6785 9.66963 86.8895 9.81884 87.1511 9.94483C87.4127 10.0708 87.7072 10.1802 88.0363 10.2731C88.3646 10.3659 88.6895 10.4654 89.0119 10.5715C90.2988 10.9959 91.2414 11.5629 91.838 12.2724C92.4346 12.982 92.7325 13.907 92.7325 15.0476C92.7325 15.8168 92.6025 16.5131 92.3409 17.1365C92.0793 17.7598 91.6971 18.2936 91.1941 18.7379C90.6912 19.1822 90.0743 19.527 89.3435 19.7724C88.6127 20.0177 87.7849 20.1404 86.8591 20.1404C84.9418 20.1404 83.1651 19.5768 81.529 18.4495L83.2186 15.3062C83.8087 15.8235 84.3916 16.208 84.9688 16.46C85.5452 16.712 86.1148 16.838 86.6785 16.838C87.3224 16.838 87.8017 16.6922 88.1165 16.4004C88.4321 16.1086 88.5891 15.7771 88.5891 15.4057C88.5891 15.1802 88.5494 14.9846 88.4684 14.8188C88.3882 14.653 88.254 14.5005 88.0667 14.3612C87.8785 14.222 87.6338 14.0927 87.3317 13.9733C87.0304 13.854 86.665 13.7213 86.2355 13.5755C85.7266 13.4163 85.2271 13.2406 84.7376 13.0482C84.2478 12.8559 83.8121 12.6007 83.4299 12.2824C83.0477 11.9641 82.7393 11.5629 82.5046 11.0788C82.27 10.5947 82.1526 9.98131 82.1526 9.2386C82.1526 8.49589 82.2766 7.82283 82.5247 7.21937C82.7728 6.61593 83.1214 6.09869 83.5707 5.66765C84.0199 5.23662 84.5697 4.90175 85.2203 4.66302C85.8701 4.42429 86.5975 4.30493 87.4026 4.30493C88.1536 4.30493 88.9376 4.40772 89.7561 4.61329C90.5739 4.81886 91.3587 5.12058 92.1097 5.51846L90.5401 8.56221ZM103.238 8.56221C102.809 8.21738 102.38 7.96208 101.951 7.7963C101.521 7.63052 101.106 7.54762 100.704 7.54762C100.194 7.54762 99.778 7.66699 99.4565 7.90571C99.135 8.14444 98.9738 8.4561 98.9738 8.84072C98.9738 9.10597 99.054 9.32481 99.2151 9.49722C99.3763 9.66963 99.5873 9.81884 99.8489 9.94483C100.11 10.0708 100.405 10.1802 100.734 10.2731C101.062 10.3659 101.387 10.4654 101.71 10.5715C102.997 10.9959 103.938 11.5629 104.536 12.2724C105.132 12.982 105.43 13.907 105.43 15.0476C105.43 15.8168 105.299 16.5131 105.038 17.1365C104.777 17.7598 104.395 18.2936 103.892 18.7379C103.389 19.1822 102.772 19.527 102.041 19.7724C101.31 20.0177 100.483 20.1404 99.5569 20.1404C97.6396 20.1404 95.8624 19.5768 94.227 18.4495L95.9164 15.3062C96.5063 15.8235 97.0894 16.208 97.6666 16.46C98.243 16.712 98.8126 16.838 99.3763 16.838C100.019 16.838 100.5 16.6922 100.814 16.4004C101.129 16.1086 101.287 15.7771 101.287 15.4057C101.287 15.1802 101.246 14.9846 101.166 14.8188C101.086 14.653 100.952 14.5005 100.764 14.3612C100.576 14.222 100.332 14.0927 100.029 13.9733C99.7282 13.854 99.3628 13.7213 98.9333 13.5755C98.4236 13.4163 97.9249 13.2406 97.4346 13.0482C96.9451 12.8559 96.5097 12.6007 96.1274 12.2824C95.7451 11.9641 95.4371 11.5629 95.2025 11.0788C94.9679 10.5947 94.8506 9.98131 94.8506 9.2386C94.8506 8.49589 94.9747 7.82283 95.2228 7.21937C95.4709 6.61593 95.8194 6.09869 96.2683 5.66765C96.7173 5.23662 97.2675 4.90175 97.9181 4.66302C98.5679 4.42429 99.2953 4.30493 100.1 4.30493C100.851 4.30493 101.635 4.40772 102.454 4.61329C103.272 4.81886 104.056 5.12058 104.807 5.51846L103.238 8.56221ZM111.406 4.68197V19.7634H107.672V4.68197H111.406ZM117.497 4.68197L121.106 13.8628L124.735 4.68197H128.958L122.653 19.7634H119.559L113.273 4.68197H117.497ZM139.042 8.00228H134.377V10.5225H138.782V13.8428H134.377V16.4431H139.042V19.7634H130.452V4.68197H139.042V8.00228Z" fill="white"/>
</g>
</g>
</g>
<defs>
<linearGradient id="paint0_linear_1224_613" x1="9.95215" y1="19.5344" x2="24.9202" y2="8.73927" gradientUnits="userSpaceOnUse">
<stop offset="0.288159" stop-color="#FF9964"/>
<stop offset="1" stop-color="#FF6E63"/>
</linearGradient>
<clipPath id="clip0_1224_613">
<rect width="139.239" height="16.0349" fill="white" transform="translate(0 4.30444)"/>
</clipPath>
<clipPath id="clip1_1224_613">
<rect width="139.239" height="16.0349" fill="white" transform="translate(0 4.30444)"/>
</clipPath>
<clipPath id="clip2_1224_613">
<rect width="139.239" height="16.0336" fill="white" transform="translate(0 4.30518)"/>
</clipPath>
</defs>
</svg>
