<svg width="256" height="256" viewBox="0 0 256 256" fill="none" xmlns="http://www.w3.org/2000/svg">
<path d="M126.574 34.0004C126.34 33.9953 126.116 34.0404 125.915 34.1422C114.658 41.0579 98.2312 50.6834 94.3397 62.4654C93.1227 66.367 93.661 67.8108 94.3249 70.9557C95.4255 74.7397 97.7251 79.7006 100.285 83.823C101.943 86.4932 107.405 93.5393 107.817 93.5393C115.381 88.7401 123.48 83.1929 129.57 77.1867V56.9994C129.57 39.9256 129.39 36.5533 128.414 35.1605C128.047 34.4615 127.274 34.0114 126.574 34.0004ZM91.3697 67.9922C90.9715 68.0004 90.345 69.5001 89.976 71.3255C89.019 76.0591 84.7589 92.9161 82.8652 99.4714C81.3278 104.793 80.7834 110.508 81.6741 111.949C82.3342 113.016 93.53 117.063 109.55 122.025C117.323 124.432 118.551 124.384 120.117 121.634C122.502 117.445 122.874 118.172 107.907 97.7439C96.0942 81.6192 94.5268 78.8924 92.9206 71.6801C92.4668 69.6422 91.768 67.9836 91.3697 67.9922ZM173.014 72.9365C172.452 72.9252 171.788 72.9575 171.094 73.0378C166.294 73.5909 148.941 74.7474 142.118 74.9729C136.579 75.156 130.969 76.4065 129.873 77.6984C129.062 78.6557 128.671 90.5469 128.9 107.308C129.012 115.442 129.439 116.593 132.539 117.232C137.263 118.205 136.687 118.785 151.5 98.2455C163.192 82.033 165.3 79.7011 171.666 75.9456C173.465 74.8844 174.828 73.7076 174.697 73.3316C174.615 73.0967 173.952 72.9563 173.014 72.9365ZM180.875 74.4461C176.787 74.4948 175.579 75.4525 172.791 77.055C169.531 79.2706 165.518 82.9879 162.386 86.6953C160.358 89.0968 155.346 96.466 155.473 96.8574C162.377 102.565 170.156 108.552 177.753 112.486L196.962 106.244C213.208 100.968 216.358 99.7557 217.382 98.3974C217.934 97.8324 218.125 96.9593 217.919 96.29C217.851 96.0669 217.739 95.8667 217.58 95.7075C207.521 87.1439 193.289 74.5045 180.875 74.4461ZM41.6805 99.8615C41.303 99.8615 41.0123 99.9051 40.758 99.9831C39.9795 100.116 39.3123 100.714 39.0855 101.376C39.0098 101.597 38.9794 101.823 39.0145 102.045C42.1163 114.882 46.1979 133.474 56.2061 140.814C59.5424 143.176 61.0824 143.112 64.2799 143.453C68.2205 143.576 73.6509 142.921 78.3646 141.761C81.4177 141.01 89.8132 137.998 89.9405 137.607C87.7116 128.933 84.9345 119.518 81.1014 111.873L61.8928 105.637C48.1854 101.185 43.7186 99.8653 41.6805 99.8615ZM177.094 112.977C174.822 112.968 163.841 116.184 148.955 121.244C141.251 123.864 140.288 124.625 140.638 127.769C141.172 132.56 140.445 132.188 164.566 139.922C183.605 146.027 186.475 147.316 192.015 152.207C193.581 153.589 195.119 154.52 195.436 154.279C195.754 154.038 195.38 152.457 194.605 150.763C192.596 146.371 186.128 130.229 183.805 123.813C181.919 118.604 179.002 113.665 177.434 113.022C177.361 112.993 177.246 112.977 177.094 112.977ZM116.584 132.263C113.777 132.256 108.257 134.119 93.9697 138.818C74.9765 145.065 71.8972 145.71 64.5384 145.008C62.459 144.81 60.6645 144.962 60.5496 145.343C60.4347 145.724 61.6686 146.783 63.2916 147.698C67.4999 150.071 82.2204 159.328 87.8727 163.154C92.4613 166.26 97.7317 168.546 99.3776 168.144C100.597 167.846 107.907 158.455 117.578 144.76C122.271 138.114 122.604 136.931 120.472 134.593C119.152 133.146 118.505 132.267 116.584 132.263ZM134.987 138.083C134.41 138.101 133.808 138.304 133.087 138.63C128.693 140.618 128.821 139.81 128.915 165.13C128.99 185.115 128.654 188.245 125.712 195.023C124.881 196.939 124.468 198.687 124.795 198.914C125.122 199.141 126.515 198.3 127.887 197.04C131.444 193.772 144.8 182.634 150.187 178.443C154.56 175.041 158.362 170.739 158.489 169.051C158.582 167.799 151.907 157.947 141.865 144.522C138.21 139.636 136.72 138.03 134.987 138.083ZM167.166 143.255C167.139 143.261 167.12 143.263 167.11 143.27C163.812 151.597 160.522 160.846 159.127 169.283L170.997 185.616C181.038 199.429 183.169 202.048 184.778 202.602C185.486 202.951 186.374 202.862 186.947 202.46C187.138 202.326 187.296 202.159 187.398 201.958C192.438 189.75 200.068 172.312 196.288 160.494C194.978 156.623 193.692 155.769 191.306 153.615C188.19 151.2 183.414 148.541 178.919 146.71C176.098 145.561 167.973 143.183 167.166 143.255ZM112.727 168.119C108.099 168.141 103.531 168.395 99.3016 169.036L87.4266 185.368C77.3862 199.181 75.5508 202.016 75.5213 203.716C75.4072 204.498 75.7668 205.312 76.3271 205.733C76.5138 205.873 76.7231 205.971 76.9454 206.006C90.1191 207.025 109.067 208.89 119.144 201.644C122.423 199.203 122.839 197.714 124.151 194.78C125.486 191.072 126.54 185.709 126.893 180.869C127.122 177.735 126.846 168.827 126.513 168.585C122.042 168.304 117.356 168.096 112.727 168.119Z" fill="#F77C69"/>
</svg>
