<svg width="256" height="256" viewBox="0 0 256 256" fill="none" xmlns="http://www.w3.org/2000/svg">
<path d="M226.311 100C237.858 100 245.56 104.62 245.561 116.931H241.401C241.401 107.351 235.372 104.159 226.237 104.158C216.513 104.159 211.222 107.433 211.222 114.493C211.222 120.536 216.752 123.033 226.318 125.552C240.176 129.49 247.108 131.716 247.108 142.323C247.108 151.561 240.176 156.947 226.318 156.947C213.998 156.947 205.531 150.79 205.531 138.477L209.689 138.48C209.689 148.533 216.766 152.793 226.258 152.793H226.265C236.862 152.793 242.943 149.36 242.943 142.324C242.943 133.915 236.528 132.656 226.306 129.831C213.99 126.321 207.062 122.84 207.062 113.852C207.063 104.62 213.99 100 226.311 100ZM83.873 115.392C94.6527 115.392 100.81 123.085 100.81 136.169H71.0889C71.0889 146.611 75.7401 152.752 83.876 152.752C89.9993 152.752 94.1505 149.27 95.8193 143.095H100.147C98.2755 151.923 92.5847 156.946 83.876 156.946C73.0949 156.946 66.9375 149.253 66.9375 136.169C66.9375 123.085 73.0934 115.392 83.873 115.392ZM173.957 100C177.697 99.9984 181.401 100.734 184.857 102.164C188.314 103.594 191.455 105.691 194.101 108.335C196.746 110.979 198.845 114.118 200.277 117.573C201.71 121.029 202.447 124.732 202.447 128.473C202.447 134.103 200.778 139.607 197.65 144.289C194.523 148.971 190.077 152.621 184.875 154.776C179.673 156.932 173.949 157.497 168.427 156.399C162.904 155.302 157.83 152.592 153.848 148.612C149.865 144.632 147.152 139.561 146.052 134.039C144.951 128.517 145.512 122.792 147.664 117.589C149.816 112.386 153.464 107.938 158.144 104.808C162.823 101.677 168.326 100.004 173.957 100ZM111.127 121.649C113.752 117.722 117.829 115.531 123.37 115.397L123.923 115.389C134.701 115.389 140.861 123.082 140.861 136.166C140.861 149.25 134.703 156.943 123.923 156.943C115.209 156.943 109.519 151.923 107.651 143.092H111.963C113.633 149.296 117.782 152.795 123.911 152.795C132.047 152.795 136.696 146.632 136.696 136.167C136.696 125.702 132.048 119.54 123.912 119.54C115.776 119.54 111.128 125.702 111.128 136.167H106.973V100.768H111.127V121.649ZM14 116.156L24.5986 149.769L35.1934 116.156H39.8418L50.4395 149.769L61.0381 116.156H65.3955L52.7773 156.178H48.1025L37.5195 122.619L26.9395 156.178H22.2617L9.64062 116.156H14ZM183.276 106.004C178.833 104.162 173.942 103.681 169.225 104.618C164.507 105.556 160.173 107.871 156.771 111.271C153.37 114.672 151.052 119.004 150.112 123.722C149.173 128.439 149.653 133.329 151.492 137.773C153.332 142.218 156.448 146.018 160.446 148.691C164.32 151.281 168.853 152.702 173.506 152.79L173.961 152.794C180.411 152.794 186.597 150.232 191.159 145.672C195.721 141.111 198.284 134.926 198.286 128.476C198.287 123.666 196.861 118.964 194.189 114.964C191.518 110.964 187.72 107.845 183.276 106.004ZM83.876 119.583C76.8904 119.583 72.4744 124.118 71.3701 132.012H96.377C95.2796 124.118 90.8629 119.583 83.876 119.583Z" fill="#F77C69"/>
</svg>
