<svg width="700" height="320" viewBox="0 0 700 320" fill="none" xmlns="http://www.w3.org/2000/svg">
<rect opacity="0.3" width="700" height="320" fill="url(#paint0_radial_1227_692)" fill-opacity="0.4"/>
<rect opacity="0.1" x="700" y="320" width="700" height="320" transform="rotate(-180 700 320)" fill="url(#paint1_radial_1227_692)" fill-opacity="0.4"/>
<g clip-path="url(#clip0_1227_692)">
<g clip-path="url(#clip1_1227_692)">
<g clip-path="url(#clip2_1227_692)">
<g clip-path="url(#clip3_1227_692)">
<path fill-rule="evenodd" clip-rule="evenodd" d="M197.586 170.125L216.568 150.73C220.11 147.111 225.899 147.065 229.497 150.628C229.502 150.633 229.507 150.638 229.512 150.643L243.629 164.687C243.761 164.818 243.973 164.816 244.103 164.684C244.227 164.558 244.232 164.356 244.115 164.223L238.345 157.693C237.682 156.942 237.635 155.825 238.233 155.021L240.853 151.496C242.486 149.299 245.579 148.85 247.763 150.493C248.038 150.7 248.291 150.935 248.517 151.195L265.145 170.261C266.311 171.597 266.179 173.631 264.85 174.803C264.266 175.318 263.516 175.602 262.74 175.602H199.867C198.099 175.602 196.667 174.161 196.667 172.384C196.667 171.539 196.997 170.727 197.586 170.125Z" fill="url(#paint2_linear_1227_692)"/>
<path fill-rule="evenodd" clip-rule="evenodd" d="M282.782 174.88L287.63 145.974H294.978L300.696 161.386L306.377 145.974H313.725L318.572 174.88H311.187L308.726 158.242L301.984 174.88H299.03L292.629 158.242L290.168 174.88H282.782ZM338.615 164.04L335.394 154.646L332.173 164.04H338.615ZM341.093 169.858H330.41L328.693 174.88H320.72L331.669 145.974H339.834L350.783 174.88H342.81L341.093 169.858ZM370.202 153.411C369.38 152.75 368.557 152.261 367.735 151.943C366.912 151.626 366.116 151.467 365.345 151.467C364.368 151.467 363.572 151.695 362.954 152.153C362.338 152.611 362.029 153.208 362.029 153.945C362.029 154.453 362.183 154.873 362.492 155.203C362.801 155.534 363.205 155.82 363.706 156.061C364.208 156.303 364.772 156.512 365.403 156.69C366.032 156.868 366.655 157.059 367.273 157.262C369.739 158.076 371.546 159.162 372.69 160.522C373.833 161.882 374.404 163.656 374.404 165.842C374.404 167.316 374.155 168.65 373.654 169.845C373.152 171.04 372.419 172.063 371.455 172.915C370.491 173.766 369.309 174.427 367.908 174.897C366.508 175.368 364.921 175.603 363.147 175.603C359.472 175.603 356.066 174.523 352.931 172.362L356.169 166.337C357.3 167.329 358.417 168.066 359.524 168.549C360.628 169.032 361.72 169.273 362.801 169.273C364.035 169.273 364.953 168.994 365.557 168.434C366.162 167.875 366.462 167.24 366.462 166.528C366.462 166.096 366.386 165.721 366.231 165.403C366.078 165.085 365.82 164.793 365.461 164.526C365.101 164.259 364.632 164.011 364.053 163.782C363.475 163.554 362.775 163.3 361.951 163.02C360.976 162.715 360.019 162.378 359.081 162.009C358.142 161.641 357.307 161.152 356.574 160.542C355.841 159.931 355.25 159.163 354.801 158.235C354.351 157.307 354.126 156.131 354.126 154.708C354.126 153.284 354.364 151.994 354.839 150.837C355.315 149.681 355.983 148.69 356.844 147.863C357.705 147.037 358.759 146.395 360.006 145.938C361.251 145.48 362.645 145.251 364.188 145.251C365.628 145.251 367.13 145.448 368.699 145.842C370.267 146.236 371.771 146.815 373.21 147.577L370.202 153.411ZM394.539 153.411C393.718 152.75 392.894 152.261 392.073 151.943C391.25 151.626 390.454 151.467 389.682 151.467C388.705 151.467 387.908 151.695 387.292 152.153C386.675 152.611 386.367 153.208 386.367 153.945C386.367 154.453 386.52 154.873 386.829 155.203C387.138 155.534 387.542 155.82 388.044 156.061C388.545 156.303 389.11 156.512 389.74 156.69C390.37 156.868 390.992 157.059 391.61 157.262C394.077 158.076 395.882 159.162 397.027 160.522C398.171 161.882 398.741 163.656 398.741 165.842C398.741 167.316 398.491 168.65 397.989 169.845C397.49 171.04 396.757 172.063 395.793 172.915C394.829 173.766 393.647 174.427 392.246 174.897C390.845 175.368 389.258 175.603 387.484 175.603C383.809 175.603 380.403 174.523 377.269 172.362L380.507 166.337C381.637 167.329 382.755 168.066 383.861 168.549C384.966 169.032 386.058 169.273 387.138 169.273C388.371 169.273 389.291 168.994 389.894 168.434C390.497 167.875 390.8 167.24 390.8 166.528C390.8 166.096 390.722 165.721 390.569 165.403C390.415 165.085 390.158 164.793 389.797 164.526C389.438 164.259 388.969 164.011 388.39 163.782C387.813 163.554 387.112 163.3 386.289 163.02C385.312 162.715 384.356 162.378 383.416 162.009C382.478 161.641 381.644 161.152 380.911 160.542C380.178 159.931 379.588 159.163 379.138 158.235C378.689 157.307 378.464 156.131 378.464 154.708C378.464 153.284 378.702 151.994 379.177 150.837C379.653 149.681 380.321 148.69 381.181 147.863C382.042 147.037 383.096 146.395 384.343 145.938C385.589 145.48 386.983 145.251 388.526 145.251C389.965 145.251 391.468 145.448 393.037 145.842C394.604 146.236 396.107 146.815 397.546 147.577L394.539 153.411ZM410.194 145.974V174.88H403.037V145.974H410.194ZM421.869 145.974L428.787 163.571L435.742 145.974H443.837L431.752 174.88H425.822L413.774 145.974H421.869ZM463.164 152.338H454.222V157.168H462.665V163.532H454.222V168.516H463.164V174.88H446.7V145.974H463.164V152.338Z" fill="white"/>
</g>
</g>
</g>
</g>
<defs>
<radialGradient id="paint0_radial_1227_692" cx="0" cy="0" r="1" gradientUnits="userSpaceOnUse" gradientTransform="translate(3.91509e-05 320) rotate(-28.3883) scale(576.303 1260.66)">
<stop stop-color="#FF9A65"/>
<stop offset="0.572467" stop-color="#FF9A65" stop-opacity="0"/>
</radialGradient>
<radialGradient id="paint1_radial_1227_692" cx="0" cy="0" r="1" gradientUnits="userSpaceOnUse" gradientTransform="translate(715 640) rotate(-49.3018) scale(320.515 486.023)">
<stop stop-color="#FF9A65"/>
<stop offset="1" stop-color="#FF9A65" stop-opacity="0"/>
</radialGradient>
<linearGradient id="paint2_linear_1227_692" x1="215.742" y1="174.441" x2="244.43" y2="153.75" gradientUnits="userSpaceOnUse">
<stop offset="0.288159" stop-color="#FF9964"/>
<stop offset="1" stop-color="#FF6E63"/>
</linearGradient>
<clipPath id="clip0_1227_692">
<rect width="306.667" height="46" fill="white" transform="translate(196.667 137)"/>
</clipPath>
<clipPath id="clip1_1227_692">
<rect width="266.875" height="30.7336" fill="white" transform="translate(196.667 145.25)"/>
</clipPath>
<clipPath id="clip2_1227_692">
<rect width="266.875" height="30.7336" fill="white" transform="translate(196.667 145.25)"/>
</clipPath>
<clipPath id="clip3_1227_692">
<rect width="266.875" height="30.7311" fill="white" transform="translate(196.667 145.251)"/>
</clipPath>
</defs>
</svg>
